HIERARCHY
ROOT Hips
{
    OFFSET 0.000000 0.000000 0.000000
    CHANNELS 6 Xposition Yposition Zposition Zrotation Xrotation Yrotation
    JOINT Spine
    {
        OFFSET -0.000000 0.068295 0.000000
        CHANNELS 3 Zrotation Xrotation Yrotation
        JOINT Spine1
        {
            OFFSET -0.000000 0.198479 0.000000
            CHANNELS 3 Zrotation Xrotation Yrotation
            JOINT Neck
            {
                OFFSET -0.000000 0.215136 0.000000
                CHANNELS 3 Zrotation Xrotation Yrotation
                JOINT Head
                {
                    OFFSET -0.000000 0.090366 0.016657
                    CHANNELS 3 Zrotation Xrotation Yrotation
                    End Site
                    {
                        OFFSET -0.000000 0.166573 0.000000
                    }
                }
            }
            JOINT LeftShoulder
            {
                OFFSET 0.033522 0.175145 -0.001055
                CHANNELS 3 Zrotation Xrotation Yrotation
                JOINT LeftArm
                {
                    OFFSET 0.121214 0.000000 0.000000
                    CHANNELS 3 Zrotation Xrotation Yrotation
                    JOINT LeftForeArm
                    {
                        OFFSET 0.261115 0.000000 0.000000
                        CHANNELS 3 Zrotation Xrotation Yrotation
                        JOINT LeftHand
                        {
                            OFFSET 0.230096 0.000000 0.000000
                            CHANNELS 3 Zrotation Xrotation Yrotation
                            End Site
                            {
                                OFFSET 0.000000 -0.124930 0.000000
                            }
                        }
                    }
                }
            }
            JOINT RightShoulder
            {
                OFFSET -0.033103 0.175145 -0.001055
                CHANNELS 3 Zrotation Xrotation Yrotation
                JOINT RightArm
                {
                    OFFSET -0.121214 0.000000 0.000000
                    CHANNELS 3 Zrotation Xrotation Yrotation
                    JOINT RightForeArm
                    {
                        OFFSET -0.261115 0.000000 0.000000
                        CHANNELS 3 Zrotation Xrotation Yrotation
                        JOINT RightHand
                        {
                            OFFSET -0.230096 0.000000 0.000000
                            CHANNELS 3 Zrotation Xrotation Yrotation
                            End Site
                            {
                                OFFSET -0.000000 -0.124930 0.000000
                            }
                        }
                    }
                }
            }
        }
    }
    JOINT LeftUpLeg
    {
        OFFSET 0.083287 0.000000 0.000000
        CHANNELS 3 Zrotation Xrotation Yrotation
        JOINT LeftLeg
        {
            OFFSET -0.000000 -0.281128 0.000000
            CHANNELS 3 Zrotation Xrotation Yrotation
            JOINT LeftFoot
            {
                OFFSET -0.000000 -0.491911 0.000000
                CHANNELS 3 Zrotation Xrotation Yrotation
                JOINT LeftToeBase
                {
                    OFFSET -0.000000 -0.054136 0.124930
                    CHANNELS 3 Zrotation Xrotation Yrotation
                    End Site
                    {
                        OFFSET -0.000000 0.000000 0.033315
                    }
                }
            }
        }
    }
    JOINT RightUpLeg
    {
        OFFSET -0.083287 0.000000 0.000000
        CHANNELS 3 Zrotation Xrotation Yrotation
        JOINT RightLeg
        {
            OFFSET -0.000000 -0.281128 0.000000
            CHANNELS 3 Zrotation Xrotation Yrotation
            JOINT RightFoot
            {
                OFFSET -0.000000 -0.491911 0.000000
                CHANNELS 3 Zrotation Xrotation Yrotation
                JOINT RightToeBase
                {
                    OFFSET -0.000000 -0.054136 0.124930
                    CHANNELS 3 Zrotation Xrotation Yrotation
                    End Site
                    {
                        OFFSET -0.000000 0.000000 0.033315
                    }
                }
            }
        }
    }
}
MOTION
Frames:    10
Frame Time:    0.010000
0.052561    0.814480    0.025641    -4.127400    1.596765    -99.379692    2.244910    -0.147650    3.108316    -1.498707    3.542929    1.080699    -0.606279    2.969679    5.911063    -8.651976    -3.188477    6.885891    15.015124    2.067649    3.608242    -19.324892    -4.520851    -1.226806    1.203273    5.142928    -3.343770    98.738937    -3.093659    -4.941456    -16.329145    -1.212943    -0.510412    19.547831    -2.279373    -3.704789    -0.165936    -1.644951    -0.395125    -93.294266    -0.718331    -1.666156    -3.100927    16.524397    7.849426    -0.334803    -2.342381    2.034077    6.446715    -9.778077    52.173573    0.000000    0.000000    0.000000    4.203855    10.500059    -3.073870    -0.711416    1.777514    -5.175626    -3.587917    -17.325302    -33.148613    0.000000    0.000000    0.000000    
0.052678    0.814477    0.025622    -4.134732    1.602932    -99.412437    2.226491    -0.135046    3.129031    -1.533529    3.522001    1.088622    -0.753880    2.594410    5.036726    -8.468021    -2.648573    5.983901    15.072401    2.071093    3.608027    -19.374170    -4.573592    -1.207147    1.192015    5.157245    -3.311396    98.833458    -3.021267    -4.958134    -16.296598    -1.171069    -0.442309    19.547039    -2.269289    -3.745898    -0.159972    -1.693088    -0.409835    -93.279999    -0.742848    -1.714976    -3.098574    16.520527    7.862617    -0.341077    -2.334378    2.035886    6.282417    -9.842658    52.120209    0.000000    0.000000    0.000000    4.203072    10.485245    -3.060162    -0.709722    1.799079    -5.160028    -3.587931    -17.310951    -33.148129    0.000000    0.000000    0.000000    
0.052785    0.814482    0.025599    -4.145511    1.610597    -99.438255    2.205641    -0.118126    3.138671    -1.555036    3.499804    1.092346    -0.880619    2.388453    4.112107    -8.392007    -2.468663    5.016696    15.112166    2.073895    3.599590    -19.419115    -4.641893    -1.171784    1.182366    5.133720    -3.326337    98.814178    -3.079852    -4.930487    -16.261068    -1.153225    -0.377919    19.534786    -2.218395    -3.774723    -0.154004    -1.728746    -0.429165    -93.273865    -0.729902    -1.750207    -3.092793    16.525492    7.867233    -0.347235    -2.331383    2.068088    6.268379    -9.868747    52.084053    0.000000    0.000000    0.000000    4.206100    10.481834    -3.050076    -0.707882    1.808129    -5.165162    -3.585284    -17.330181    -33.136871    0.000000    0.000000    0.000000    
0.052903    0.814473    0.025574    -4.148348    1.616972    -99.469696    2.184804    -0.112670    3.153900    -1.580158    3.484225    1.098108    -0.921123    2.282771    3.167957    -8.484749    -2.472725    4.046556    15.152144    2.089139    3.587599    -19.465572    -4.664489    -1.149879    1.194588    5.114581    -3.299929    98.533516    -3.008237    -4.924365    -16.228016    -1.127769    -0.297902    19.517262    -2.227435    -3.831615    -0.115176    -1.730938    -0.419521    -93.268410    -0.730575    -1.752192    -3.087588    16.510927    7.886120    -0.347925    -2.310717    2.059645    6.436119    -9.879639    52.134686    0.000000    0.000000    0.000000    4.212233    10.460660    -3.048053    -0.715790    1.830061    -5.138618    -3.577046    -17.332905    -33.121269    0.000000    0.000000    0.000000    
0.053034    0.814475    0.025557    -4.154367    1.619244    -99.495041    2.155917    -0.091827    3.157386    -1.604963    3.444436    1.099654    -0.940473    2.308650    2.253777    -8.574290    -2.772464    3.086989    15.138141    2.203460    3.576432    -19.431437    -4.791327    -1.135175    1.170063    5.133871    -3.303352    98.458862    -3.003516    -4.945303    -16.190079    -1.136054    -0.208795    19.491402    -2.222219    -3.904742    -0.087125    -1.741798    -0.394835    -93.226433    -0.734799    -1.762788    -3.084647    16.509888    7.876519    -0.352032    -2.310924    2.066723    6.463054    -9.836221    52.179367    0.000000    0.000000    0.000000    4.210972    10.444387    -3.038354    -0.717082    1.849036    -5.141119    -3.568345    -17.350153    -33.096668    0.000000    0.000000    0.000000    
0.053167    0.814471    0.025531    -4.159329    1.624380    -99.520859    2.129557    -0.079693    3.163787    -1.618424    3.434122    1.102237    -1.057672    2.195743    1.406236    -8.419019    -2.802106    2.176185    15.166425    2.202153    3.570792    -19.473368    -4.809124    -1.097646    1.185803    5.193258    -3.304249    98.705032    -3.008937    -4.998226    -16.163479    -1.101834    -0.165285    19.464397    -2.281265    -3.918961    -0.044512    -1.749748    -0.371789    -93.237816    -0.731013    -1.770603    -3.090849    16.494921    7.911212    -0.340987    -2.291908    2.082782    6.454668    -9.878030    52.135319    0.000000    0.000000    0.000000    4.209073    10.430762    -3.028772    -0.710200    1.861643    -5.122249    -3.573107    -17.369623    -33.088619    0.000000    0.000000    0.000000    
0.053305    0.814462    0.025502    -4.160492    1.631185    -99.546516    2.111123    -0.060024    3.167698    -1.643368    3.403135    1.104009    -1.163088    2.044484    0.637328    -8.230278    -2.673812    1.356587    15.221035    2.137868    3.556572    -19.539553    -4.738046    -1.032782    1.221991    5.200826    -3.312868    98.677292    -3.007988    -5.007742    -16.122271    -1.090593    -0.103409    19.400831    -2.333028    -3.975901    0.055964    -1.715270    -0.320337    -93.311119    -0.700676    -1.735368    -3.081931    16.486416    7.911049    -0.349403    -2.289878    2.081590    6.302863    -9.919069    52.100208    0.000000    0.000000    0.000000    4.214339    10.409034    -3.029574    -0.712475    1.883443    -5.112489    -3.570608    -17.351841    -33.082359    0.000000    0.000000    0.000000    
0.053434    0.814461    0.025483    -4.176349    1.634919    -99.567963    2.090958    -0.030157    3.167640    -1.662984    3.392776    1.104634    -1.227389    1.885160    -0.102269    -8.136192    -2.552687    0.582579    15.210932    2.180371    3.547719    -19.552927    -4.758888    -1.015949    1.256385    5.189313    -3.311832    98.394958    -2.999690    -5.005274    -16.104761    -1.095750    -0.070998    19.402548    -2.309321    -3.974372    0.033090    -1.770731    -0.329333    -93.229881    -0.749489    -1.791804    -3.085040    16.489319    7.931100    -0.346709    -2.281518    2.108857    6.290031    -9.911138    52.073807    0.000000    0.000000    0.000000    4.213675    10.418538    -3.021729    -0.711075    1.877489    -5.105533    -3.576041    -17.363047    -33.077854    0.000000    0.000000    0.000000    
0.053562    0.814450    0.025450    -4.182693    1.639384    -99.587982    2.066307    -0.016899    3.175793    -1.671832    3.405947    1.107945    -1.281052    1.790373    -0.867254    -8.057291    -2.604626    -0.227107    15.204296    2.222149    3.543708    -19.572227    -4.810465    -1.011117    1.279227    5.212385    -3.334171    98.339317    -2.991216    -5.031343    -16.110416    -1.152848    -0.058940    19.447357    -2.212464    -3.973409    0.000283    -1.793736    -0.361925    -93.210114    -0.787665    -1.815817    -3.075722    16.479527    7.934613    -0.353963    -2.263920    2.098395    6.301788    -9.946079    52.068893    0.000000    0.000000    0.000000    4.219230    10.394457    -3.039780    -0.717009    1.905703    -5.092562    -3.549049    -17.394815    -33.020908    0.000000    0.000000    0.000000    
0.053721    0.814461    0.025404    -4.187924    1.644303    -99.607735    2.046043    0.007789    3.176333    -1.692259    3.391623    1.108698    -1.389521    1.654993    -1.525447    -7.829337    -2.498831    -0.939359    15.199665    2.254451    3.549548    -19.582941    -4.867462    -1.015385    1.287073    5.254131    -3.340647    98.500298    -3.070949    -5.063224    -16.069395    -1.181815    -0.020416    19.419922    -2.217028    -3.999557    0.012635    -1.811019    -0.343365    -93.190811    -0.775994    -1.832627    -3.062895    16.478359    7.926867    -0.360933    -2.270640    2.125631    6.470104    -9.930242    52.122849    0.000000    0.000000    0.000000    4.231755    10.381150    -3.045885    -0.729092    1.915198    -5.092655    -3.547422    -17.387146    -33.013233    0.000000    0.000000    0.000000    
